<?xml version="1.0" standalone="no"?>
<!DOCTYPE svg PUBLIC "-//W3C//DTD SVG 20010904//EN"
 "http://www.w3.org/TR/2001/REC-SVG-20010904/DTD/svg10.dtd">
<svg version="1.0" xmlns="http://www.w3.org/2000/svg"
 width="300.000000pt" height="300.000000pt" viewBox="0 0 300.000000 300.000000"
 preserveAspectRatio="xMidYMid meet">
<metadata>
Created by potrace 1.10, written by Peter Selinger 2001-2011
</metadata>
<g transform="translate(0.000000,300.000000) scale(0.100000,-0.100000)"
fill="#000000" stroke="none">
<path d="M1245 2978 c-27 -5 -57 -11 -65 -12 -173 -33 -406 -139 -570 -260
-284 -210 -503 -543 -571 -871 -7 -33 -14 -67 -16 -75 -2 -8 -5 -49 -8 -90 -2
-41 -2 -61 1 -45 3 17 9 39 14 50 5 11 14 52 20 90 30 176 119 395 223 550
143 212 342 388 564 499 160 79 211 96 473 155 81 18 83 19 35 19 -27 0 -72
-5 -100 -10z"/>
<path d="M1685 2970 c323 -72 462 -127 661 -265 191 -132 367 -337 473 -550
60 -122 95 -225 126 -370 37 -171 46 -195 40 -110 -2 39 -7 81 -10 95 -3 14
-7 34 -9 45 -29 147 -104 334 -189 470 -189 303 -474 528 -807 638 -58 20
-121 38 -140 41 -19 3 -46 8 -60 11 -14 3 -59 8 -100 10 l-75 5 90 -20z"/>
<path d="M1325 2874 c-320 -47 -580 -176 -800 -398 -197 -198 -315 -411 -377
-678 -16 -71 -22 -135 -25 -269 -4 -160 -2 -188 21 -295 14 -66 35 -148 46
-183 61 -185 180 -372 329 -521 196 -196 395 -309 660 -377 98 -25 121 -27
316 -28 230 0 265 5 435 61 217 73 385 177 550 343 186 186 304 398 370 661
28 110 38 370 20 503 -60 446 -344 837 -761 1050 -84 43 -194 81 -324 113 -68
16 -386 29 -460 18z m380 -30 c163 -30 324 -84 435 -146 57 -32 201 -126 210
-137 3 -4 31 -29 64 -56 67 -56 153 -159 225 -267 262 -396 290 -919 73 -1353
-31 -63 -131 -213 -174 -263 -154 -176 -332 -303 -543 -387 -183 -73 -421
-107 -611 -87 -60 6 -118 14 -129 16 -217 47 -341 97 -493 198 -108 71 -214
160 -269 226 -26 31 -51 59 -54 62 -12 10 -127 186 -148 228 -177 348 -197
764 -54 1122 143 357 420 631 778 768 98 37 225 69 325 82 74 9 306 5 365 -6z"/>
<path d="M1007 2365 c-14 -7 -42 -19 -64 -26 -21 -6 -77 -32 -125 -56 -77 -39
-91 -51 -127 -104 -61 -91 -77 -168 -61 -296 40 -313 353 -739 760 -1033 102
-74 321 -184 407 -206 76 -18 223 -22 280 -6 22 7 68 30 102 53 53 36 65 50
104 127 24 48 50 104 56 125 7 22 19 50 26 64 24 46 2 159 -38 192 -7 5 -86
53 -177 106 -231 136 -273 138 -385 19 -64 -68 -105 -85 -149 -62 -18 9 -160
127 -193 161 -34 33 -152 175 -161 193 -23 44 -6 86 61 149 119 112 119 146
-4 361 -51 87 -100 171 -110 185 -37 53 -147 83 -202 54z m132 -34 c48 -25 43
-19 150 -205 77 -135 91 -166 91 -204 0 -52 -23 -105 -53 -125 -71 -46 -107
-114 -93 -171 18 -71 265 -329 365 -381 65 -33 127 -13 182 59 19 25 48 52 66
61 43 21 115 19 155 -4 18 -10 89 -51 158 -91 149 -86 155 -90 176 -146 19
-50 15 -83 -22 -175 -68 -170 -104 -218 -190 -259 -134 -64 -291 -48 -504 53
-80 38 -254 149 -311 199 -15 13 -42 35 -60 51 -123 100 -309 309 -408 456
-56 83 -133 238 -160 325 -32 101 -38 218 -15 291 39 125 85 166 279 247 102
42 140 46 194 19z"/>
<path d="M945 2216 c-63 -26 -113 -55 -136 -78 -43 -42 -69 -112 -69 -184 0
-56 17 -152 30 -169 4 -5 13 -28 20 -50 47 -153 281 -470 464 -630 304 -266
581 -394 768 -356 105 22 154 79 213 248 38 108 34 112 -204 243 -128 71 -123
71 -204 -17 -77 -84 -167 -104 -262 -59 -65 31 -91 52 -206 166 -112 111 -183
197 -204 247 -33 79 -8 181 60 244 66 60 75 72 75 97 0 30 -138 278 -176 315
-15 15 -36 27 -48 26 -11 0 -66 -20 -121 -43z m239 -138 c90 -158 99 -189 56
-203 -32 -10 -98 -93 -116 -147 -18 -56 -14 -125 11 -175 49 -99 308 -357 421
-420 36 -20 110 -26 162 -13 52 12 146 84 157 120 14 43 45 34 203 -56 174
-99 172 -96 126 -200 -72 -164 -71 -162 -123 -189 -68 -34 -174 -35 -283 -1
-332 102 -776 513 -959 887 -70 143 -90 308 -48 392 27 51 36 59 119 97 36 17
79 37 95 44 17 8 44 15 61 15 30 1 35 -5 118 -151z"/>
<path d="M2972 1340 c-7 -36 -20 -99 -29 -140 -76 -368 -308 -712 -623 -922
-183 -121 -329 -181 -590 -240 -120 -27 -122 -28 -55 -23 39 2 81 7 95 10 14
3 34 7 45 9 145 29 354 113 479 194 198 128 350 280 478 478 70 109 159 318
184 434 4 19 9 40 10 45 12 43 25 150 22 182 -3 35 -4 33 -16 -27z"/>
<path d="M15 1325 c3 -38 6 -77 8 -85 2 -8 9 -42 16 -75 75 -360 330 -722 654
-928 124 -79 313 -161 442 -192 106 -25 175 -35 230 -34 l50 2 -45 8 c-25 5
-57 11 -73 13 -197 34 -420 117 -577 215 -60 37 -229 173 -270 217 -156 169
-248 310 -323 501 -39 98 -47 126 -78 268 -35 157 -39 169 -34 90z"/>
</g>
</svg>
