<svg width="32" height="32" viewBox="0 0 32 32" fill="none" xmlns="http://www.w3.org/2000/svg">
<rect width="32" height="32" rx="16" fill="#F4F6F9"/>
<path d="M27.1842 19.9188L23.9967 9.30632C23.9354 9.09168 23.8258 8.89391 23.6763 8.72816C23.5268 8.56241 23.3414 8.43308 23.1342 8.35007H23.0779L23.1342 8.33132C22.0883 7.91226 21.0054 7.59211 19.8998 7.37507C19.8031 7.35597 19.7037 7.3561 19.6071 7.37544C19.5105 7.39479 19.4186 7.43298 19.3368 7.48782C19.255 7.54267 19.1847 7.6131 19.1301 7.6951C19.0755 7.77709 19.0376 7.86905 19.0185 7.9657C18.998 8.06178 18.9968 8.16099 19.0151 8.25754C19.0333 8.35408 19.0705 8.44604 19.1246 8.52806C19.1787 8.61007 19.2486 8.68051 19.3301 8.73525C19.4117 8.79 19.5034 8.82797 19.5998 8.84695C20.0217 8.93132 20.4342 9.03445 20.8373 9.14695C20.9858 9.22402 21.1042 9.34852 21.1738 9.50066C21.2434 9.65279 21.2601 9.82382 21.2213 9.98655C21.1825 10.1493 21.0904 10.2944 20.9597 10.3987C20.829 10.5031 20.6671 10.5608 20.4998 10.5626H20.4248C18.9801 10.1858 17.4928 9.99674 15.9998 10.0001C14.5418 9.99573 13.0893 10.1785 11.6779 10.5438C11.4983 10.5912 11.3075 10.5703 11.1425 10.485C10.9774 10.3998 10.8499 10.2564 10.7845 10.0825C10.7192 9.90863 10.7207 9.71668 10.7887 9.54385C10.8568 9.37102 10.9866 9.22959 11.1529 9.14695H11.1623C11.5654 9.03445 11.9779 8.93132 12.3998 8.84695C12.4964 8.82788 12.5884 8.78996 12.6704 8.73535C12.7524 8.68075 12.8228 8.61052 12.8777 8.52868C12.9325 8.44684 12.9707 8.355 12.99 8.25841C13.0094 8.16181 13.0095 8.06235 12.9904 7.9657C12.9497 7.77171 12.8347 7.60134 12.67 7.49098C12.5054 7.38063 12.3041 7.33903 12.1092 7.37507C10.9996 7.59696 9.91346 7.92342 8.86541 8.35007C8.65821 8.43308 8.47275 8.56241 8.32325 8.72816C8.17375 8.89391 8.06417 9.09168 8.00291 9.30632L4.81541 19.9188C4.73272 20.1963 4.73209 20.4918 4.81361 20.7696C4.89512 21.0474 5.05529 21.2957 5.27479 21.4844C5.36103 21.5675 5.45179 21.6458 5.54666 21.7188H5.55604C7.07479 22.9563 9.07166 23.9032 11.3217 24.447C11.3792 24.4654 11.4393 24.4749 11.4998 24.4751C11.6852 24.478 11.8652 24.4121 12.0049 24.2902C12.1446 24.1682 12.2342 23.9988 12.2563 23.8147C12.2784 23.6306 12.2316 23.4448 12.1248 23.2932C12.018 23.1416 11.8588 23.0349 11.6779 22.9938C10.6664 22.7495 9.683 22.4007 8.74354 21.9532V21.9532C8.61495 21.8327 8.5329 21.6708 8.51176 21.4959C8.49063 21.3209 8.53176 21.1441 8.62795 20.9965C8.72414 20.8489 8.86924 20.7398 9.0378 20.6885C9.20637 20.6371 9.38762 20.6468 9.54979 20.7157C11.331 21.5032 13.5717 22.0001 15.9998 22.0001C18.4279 22.0001 20.6685 21.5032 22.4498 20.7157C22.6119 20.6468 22.7932 20.6371 22.9618 20.6885C23.1303 20.7398 23.2754 20.8489 23.3716 20.9965C23.4678 21.1441 23.5089 21.3209 23.4878 21.4959C23.4667 21.6708 23.3846 21.8327 23.256 21.9532C22.3166 22.4007 21.3332 22.7495 20.3217 22.9938C20.1408 23.0349 19.9816 23.1416 19.8748 23.2932C19.768 23.4448 19.7211 23.6306 19.7433 23.8147C19.7654 23.9988 19.855 24.1682 19.9947 24.2902C20.1344 24.4121 20.3144 24.478 20.4998 24.4751C20.5603 24.4749 20.6203 24.4654 20.6779 24.447C22.9279 23.9032 24.9248 22.9563 26.4435 21.7188H26.4529C26.5478 21.6458 26.6385 21.5675 26.7248 21.4844C26.9443 21.2957 27.1045 21.0474 27.186 20.7696C27.2675 20.4918 27.2669 20.1963 27.1842 19.9188V19.9188ZM12.9998 18.6251C12.7773 18.6251 12.5598 18.5591 12.3748 18.4355C12.1898 18.3119 12.0456 18.1362 11.9604 17.9306C11.8753 17.725 11.853 17.4988 11.8964 17.2806C11.9398 17.0624 12.047 16.8619 12.2043 16.7046C12.3616 16.5472 12.5621 16.4401 12.7803 16.3967C12.9985 16.3533 13.2247 16.3756 13.4303 16.4607C13.6359 16.5459 13.8116 16.6901 13.9352 16.8751C14.0588 17.0601 14.1248 17.2776 14.1248 17.5001C14.1248 17.7984 14.0063 18.0846 13.7953 18.2956C13.5843 18.5065 13.2982 18.6251 12.9998 18.6251ZM18.9998 18.6251C18.7773 18.6251 18.5598 18.5591 18.3748 18.4355C18.1898 18.3119 18.0456 18.1362 17.9604 17.9306C17.8753 17.725 17.853 17.4988 17.8964 17.2806C17.9398 17.0624 18.047 16.8619 18.2043 16.7046C18.3616 16.5472 18.5621 16.4401 18.7803 16.3967C18.9985 16.3533 19.2247 16.3756 19.4303 16.4607C19.6359 16.5459 19.8116 16.6901 19.9352 16.8751C20.0588 17.0601 20.1248 17.2776 20.1248 17.5001C20.1248 17.7984 20.0063 18.0846 19.7953 18.2956C19.5843 18.5065 19.2982 18.6251 18.9998 18.6251Z" fill="#1A2C47"/>
</svg>
