<?xml version="1.0" standalone="no"?>
<!DOCTYPE svg PUBLIC "-//W3C//DTD SVG 20010904//EN"
 "http://www.w3.org/TR/2001/REC-SVG-20010904/DTD/svg10.dtd">
<svg version="1.0" xmlns="http://www.w3.org/2000/svg"
 width="300.000000pt" height="300.000000pt" viewBox="0 0 300.000000 300.000000"
 preserveAspectRatio="xMidYMid meet">
<metadata>
Created by potrace 1.10, written by Peter Selinger 2001-2011
</metadata>
<g transform="translate(0.000000,300.000000) scale(0.100000,-0.100000)"
fill="#000000" stroke="none">
<path d="M145 2596 c-81 -37 -142 -125 -133 -188 3 -19 9 -12 32 34 35 71 88
120 146 137 35 9 339 11 1330 9 l1285 -3 40 -21 c51 -28 68 -47 110 -125 33
-61 35 -62 35 -31 0 75 -52 149 -135 188 l-50 24 -1305 0 -1305 0 -50 -24z"/>
<path d="M290 2532 c-19 -1 -45 -8 -57 -14 -43 -22 -29 -51 74 -144 53 -49
108 -100 122 -113 14 -13 93 -85 176 -160 82 -75 183 -167 225 -206 118 -109
299 -275 355 -325 27 -25 52 -47 55 -50 3 -3 44 -40 91 -82 122 -108 181 -121
265 -59 48 35 302 262 549 492 28 25 104 94 170 154 66 59 129 117 141 129 12
11 36 34 55 50 141 122 279 261 279 281 0 52 59 50 -1249 50 -669 0 -1232 -1
-1251 -3z m2465 -59 c-16 -14 -124 -112 -240 -218 -758 -694 -952 -866 -983
-874 -43 -12 -85 0 -130 40 -20 18 -260 235 -532 483 -272 248 -524 477 -560
510 -36 32 -72 65 -80 72 -12 12 180 14 1270 14 l1285 -1 -30 -26z"/>
<path d="M111 2404 c-21 -27 -21 -32 -21 -904 0 -862 0 -878 20 -903 14 -18
26 -23 41 -20 11 3 107 87 213 187 283 267 482 450 631 580 113 99 145 135
145 161 0 24 -55 80 -256 260 -16 15 -205 188 -218 200 -6 6 -90 82 -186 170
-96 87 -199 181 -228 209 -52 49 -100 86 -114 86 -4 0 -16 -12 -27 -26z m508
-439 c212 -193 410 -372 442 -400 32 -27 58 -54 58 -60 0 -5 -46 -49 -102 -97
-132 -112 -343 -305 -644 -589 -177 -168 -243 -224 -247 -213 -8 21 -8 1768 0
1789 5 12 16 6 58 -32 28 -27 224 -206 435 -398z"/>
<path d="M2835 2418 c-11 -6 -117 -99 -235 -207 -118 -108 -235 -214 -259
-236 -24 -22 -56 -51 -71 -65 -14 -14 -73 -68 -130 -120 -57 -52 -111 -102
-120 -110 -9 -8 -36 -33 -61 -56 -24 -22 -59 -57 -77 -78 -29 -33 -31 -39 -20
-61 7 -13 85 -87 173 -166 158 -140 363 -330 520 -479 283 -270 293 -277 323
-261 11 6 22 18 26 27 10 26 7 1760 -3 1787 -5 13 -17 27 -26 31 -20 7 -16 8
-40 -6z m45 -915 c0 -485 -3 -888 -6 -897 -4 -11 -70 45 -247 213 -267 252
-582 540 -682 622 -35 30 -64 58 -64 62 -1 5 11 19 27 32 15 13 236 214 492
448 294 269 468 421 472 413 4 -6 8 -408 8 -893z"/>
<path d="M1745 1427 c-17 -11 -53 -42 -80 -67 -61 -56 -108 -74 -185 -68 -62
4 -84 16 -190 103 -30 25 -64 45 -75 45 -19 0 -125 -80 -210 -158 -22 -21 -89
-82 -149 -137 -129 -117 -106 -96 -281 -260 -338 -315 -375 -352 -375 -373 0
-5 9 -17 20 -27 19 -17 83 -18 1280 -19 l1259 -1 22 21 c19 20 20 23 6 50 -8
16 -28 40 -44 53 -15 13 -95 88 -178 166 -170 160 -266 250 -410 380 -363 329
-361 327 -410 292z m-465 -62 c81 -80 140 -110 220 -110 80 0 138 29 223 112
l58 56 22 -20 c12 -11 83 -73 157 -139 150 -132 331 -300 624 -575 l196 -184
-640 -3 c-352 -1 -928 -1 -1280 0 l-640 3 267 251 c400 374 720 664 733 663 3
0 30 -24 60 -54z"/>
<path d="M2962 578 c-42 -85 -77 -124 -129 -144 -46 -18 -104 -19 -1348 -19
l-1300 0 -35 22 c-49 30 -74 59 -107 123 -22 45 -28 51 -31 32 -10 -63 52
-151 133 -188 l50 -24 1305 0 1305 0 50 24 c83 38 143 127 133 196 -3 22 -6
20 -26 -22z"/>
</g>
</svg>
