<svg width="32" height="32" viewBox="0 0 32 32" fill="none" xmlns="http://www.w3.org/2000/svg">
<rect width="32" height="32" rx="16" fill="#F4F6F9"/>
<path d="M16 19C17.6569 19 19 17.6569 19 16C19 14.3431 17.6569 13 16 13C14.3431 13 13 14.3431 13 16C13 17.6569 14.3431 19 16 19Z" fill="#1A2C47"/>
<path d="M20.125 6.625H11.875C10.4826 6.625 9.14726 7.17812 8.16269 8.16269C7.17812 9.14726 6.625 10.4826 6.625 11.875V20.125C6.625 21.5174 7.17812 22.8527 8.16269 23.8373C9.14726 24.8219 10.4826 25.375 11.875 25.375H20.125C21.5174 25.375 22.8527 24.8219 23.8373 23.8373C24.8219 22.8527 25.375 21.5174 25.375 20.125V11.875C25.375 10.4826 24.8219 9.14726 23.8373 8.16269C22.8527 7.17812 21.5174 6.625 20.125 6.625V6.625ZM16 20.5C15.11 20.5 14.24 20.2361 13.4999 19.7416C12.7599 19.2471 12.1831 18.5443 11.8425 17.7221C11.5019 16.8998 11.4128 15.995 11.5865 15.1221C11.7601 14.2492 12.1887 13.4474 12.818 12.818C13.4474 12.1887 14.2492 11.7601 15.1221 11.5865C15.995 11.4128 16.8998 11.5019 17.7221 11.8425C18.5443 12.1831 19.2471 12.7599 19.7416 13.4999C20.2361 14.24 20.5 15.11 20.5 16C20.5 17.1935 20.0259 18.3381 19.182 19.182C18.3381 20.0259 17.1935 20.5 16 20.5ZM20.875 12.25C20.6525 12.25 20.435 12.184 20.25 12.0604C20.065 11.9368 19.9208 11.7611 19.8356 11.5555C19.7505 11.35 19.7282 11.1238 19.7716 10.9055C19.815 10.6873 19.9222 10.4868 20.0795 10.3295C20.2368 10.1722 20.4373 10.065 20.6555 10.0216C20.8738 9.97821 21.1 10.0005 21.3055 10.0856C21.5111 10.1708 21.6868 10.315 21.8104 10.5C21.934 10.685 22 10.9025 22 11.125C22 11.4234 21.8815 11.7095 21.6705 11.9205C21.4595 12.1315 21.1734 12.25 20.875 12.25Z" fill="#1A2C47"/>
</svg>
