<svg width="32" height="32" viewBox="0 0 32 32" fill="none" xmlns="http://www.w3.org/2000/svg">
<rect width="32" height="32" rx="16" fill="#F4F6F9"/>
<path d="M23.875 6.625H8.125C7.72718 6.625 7.34564 6.78304 7.06434 7.06434C6.78304 7.34564 6.625 7.72718 6.625 8.125V23.875C6.625 24.2728 6.78304 24.6544 7.06434 24.9357C7.34564 25.217 7.72718 25.375 8.125 25.375H23.875C24.2728 25.375 24.6544 25.217 24.9357 24.9357C25.217 24.6544 25.375 24.2728 25.375 23.875V8.125C25.375 7.72718 25.217 7.34564 24.9357 7.06434C24.6544 6.78304 24.2728 6.625 23.875 6.625ZM13 20.5C13 20.6989 12.921 20.8897 12.7803 21.0303C12.6397 21.171 12.4489 21.25 12.25 21.25C12.0511 21.25 11.8603 21.171 11.7197 21.0303C11.579 20.8897 11.5 20.6989 11.5 20.5V14.5C11.5 14.3011 11.579 14.1103 11.7197 13.9697C11.8603 13.829 12.0511 13.75 12.25 13.75C12.4489 13.75 12.6397 13.829 12.7803 13.9697C12.921 14.1103 13 14.3011 13 14.5V20.5ZM12.25 12.625C12.0275 12.625 11.81 12.559 11.625 12.4354C11.44 12.3118 11.2958 12.1361 11.2106 11.9305C11.1255 11.725 11.1032 11.4988 11.1466 11.2805C11.19 11.0623 11.2972 10.8618 11.4545 10.7045C11.6118 10.5472 11.8123 10.44 12.0305 10.3966C12.2488 10.3532 12.475 10.3755 12.6805 10.4606C12.8861 10.5458 13.0618 10.69 13.1854 10.875C13.309 11.06 13.375 11.2775 13.375 11.5C13.375 11.7984 13.2565 12.0845 13.0455 12.2955C12.8345 12.5065 12.5484 12.625 12.25 12.625V12.625ZM21.25 20.5C21.25 20.6989 21.171 20.8897 21.0303 21.0303C20.8897 21.171 20.6989 21.25 20.5 21.25C20.3011 21.25 20.1103 21.171 19.9697 21.0303C19.829 20.8897 19.75 20.6989 19.75 20.5V17.125C19.75 16.6277 19.5525 16.1508 19.2008 15.7992C18.8492 15.4475 18.3723 15.25 17.875 15.25C17.3777 15.25 16.9008 15.4475 16.5492 15.7992C16.1975 16.1508 16 16.6277 16 17.125V20.5C16 20.6989 15.921 20.8897 15.7803 21.0303C15.6397 21.171 15.4489 21.25 15.25 21.25C15.0511 21.25 14.8603 21.171 14.7197 21.0303C14.579 20.8897 14.5 20.6989 14.5 20.5V14.5C14.4995 14.3154 14.567 14.1371 14.6898 13.9993C14.8125 13.8614 14.9817 13.7736 15.1651 13.7527C15.3485 13.7318 15.5331 13.7793 15.6837 13.886C15.8343 13.9928 15.9402 14.1513 15.9813 14.3312C16.4887 13.9872 17.0803 13.788 17.6925 13.7548C18.3047 13.7217 18.9144 13.8559 19.4561 14.1431C19.9977 14.4303 20.4509 14.8597 20.767 15.385C21.083 15.9104 21.25 16.5119 21.25 17.125V20.5Z" fill="#1A2C47"/>
</svg>
