<svg width="32" height="32" viewBox="0 0 32 32" fill="none" xmlns="http://www.w3.org/2000/svg">
<rect width="32" height="32" rx="16" fill="#F4F6F9"/>
<path d="M16 28C22.6274 28 28 22.6274 28 16C28 9.37258 22.6274 4 16 4C9.37258 4 4 9.37258 4 16C4 22.6274 9.37258 28 16 28Z" fill="#1A2C47"/>
<path d="M8.60744 9.04761L14.3433 16.7169L8.57129 22.9523H9.87044L14.9239 17.493L19.0069 22.9523H23.4276L17.3689 14.8518L22.7415 9.04761H21.4424L16.7885 14.0754L13.0282 9.04761H8.60744ZM10.5179 10.0045H12.5488L21.5169 21.9955H19.486L10.5179 10.0045Z" fill="white"/>
</svg>